<svg xmlns="http://www.w3.org/2000/svg" viewBox="0 0 800 500" width="800" height="500">
  <rect width="800" height="500" rx="6" fill="white" stroke="#DCDFE3" stroke-width="1"/>
  <text x="95" y="34" font-size="15" font-weight="500" fill="#2D3748" font-family="Inter, Helvetica Neue, sans-serif">YLD8on - Historical Performance</text>
  <line x1="95" y1="417.9" x2="770" y2="417.9" stroke="#EAECEF" stroke-width="1"/><text x="87" y="421.9" text-anchor="end" font-size="11" fill="#666666" font-family="Inter, Helvetica Neue, sans-serif">$9,500.00</text><line x1="95" y1="332.3" x2="770" y2="332.3" stroke="#EAECEF" stroke-width="1"/><text x="87" y="336.3" text-anchor="end" font-size="11" fill="#666666" font-family="Inter, Helvetica Neue, sans-serif">$10,000.00</text><line x1="95" y1="246.7" x2="770" y2="246.7" stroke="#EAECEF" stroke-width="1"/><text x="87" y="250.7" text-anchor="end" font-size="11" fill="#666666" font-family="Inter, Helvetica Neue, sans-serif">$10,500.00</text><line x1="95" y1="161.1" x2="770" y2="161.1" stroke="#EAECEF" stroke-width="1"/><text x="87" y="165.1" text-anchor="end" font-size="11" fill="#666666" font-family="Inter, Helvetica Neue, sans-serif">$11,000.00</text><line x1="95" y1="75.5" x2="770" y2="75.5" stroke="#EAECEF" stroke-width="1"/><text x="87" y="79.5" text-anchor="end" font-size="11" fill="#666666" font-family="Inter, Helvetica Neue, sans-serif">$11,500.00</text><line x1="162.5" y1="55" x2="162.5" y2="435" stroke="#EAECEF" stroke-width="1"/><text x="162.5" y="453" text-anchor="middle" font-size="11" fill="#666666" font-family="Inter, Helvetica Neue, sans-serif">Dec 2025</text><line x1="230.0" y1="55" x2="230.0" y2="435" stroke="#EAECEF" stroke-width="1"/><text x="230.0" y="453" text-anchor="middle" font-size="11" fill="#666666" font-family="Inter, Helvetica Neue, sans-serif">Jan 2026</text><line x1="297.5" y1="55" x2="297.5" y2="435" stroke="#EAECEF" stroke-width="1"/><text x="297.5" y="453" text-anchor="middle" font-size="11" fill="#666666" font-family="Inter, Helvetica Neue, sans-serif">Feb 2026</text><line x1="365.0" y1="55" x2="365.0" y2="435" stroke="#EAECEF" stroke-width="1"/><text x="365.0" y="453" text-anchor="middle" font-size="11" fill="#666666" font-family="Inter, Helvetica Neue, sans-serif">Mar 2026</text><line x1="432.5" y1="55" x2="432.5" y2="435" stroke="#EAECEF" stroke-width="1"/><text x="432.5" y="453" text-anchor="middle" font-size="11" fill="#666666" font-family="Inter, Helvetica Neue, sans-serif">Apr 2026</text><line x1="500.0" y1="55" x2="500.0" y2="435" stroke="#EAECEF" stroke-width="1"/><text x="500.0" y="453" text-anchor="middle" font-size="11" fill="#666666" font-family="Inter, Helvetica Neue, sans-serif">May 2026</text><line x1="567.5" y1="55" x2="567.5" y2="435" stroke="#EAECEF" stroke-width="1"/><text x="567.5" y="453" text-anchor="middle" font-size="11" fill="#666666" font-family="Inter, Helvetica Neue, sans-serif">Jun 2026</text><line x1="635.0" y1="55" x2="635.0" y2="435" stroke="#EAECEF" stroke-width="1"/><text x="635.0" y="453" text-anchor="middle" font-size="11" fill="#666666" font-family="Inter, Helvetica Neue, sans-serif">Jul 2026</text><line x1="702.5" y1="55" x2="702.5" y2="435" stroke="#EAECEF" stroke-width="1"/><text x="702.5" y="453" text-anchor="middle" font-size="11" fill="#666666" font-family="Inter, Helvetica Neue, sans-serif">Aug 2026</text>
  <line x1="95" y1="435" x2="770" y2="435" stroke="#CCCCCC" stroke-width="1"/>
  <path d="M 95.0,323.5 L 96.3,330.3 L 97.7,327.8 L 99.0,320.4 L 100.4,327.3 L 101.8,329.7 L 103.1,331.3 L 104.5,327.4 L 105.8,331.6 L 107.2,323.0 L 108.5,325.6 L 109.8,330.5 L 111.2,335.0 L 112.5,333.4 L 113.9,335.3 L 115.2,336.2 L 116.6,338.8 L 118.0,333.7 L 119.3,331.8 L 120.7,342.2 L 122.0,342.5 L 123.3,345.8 L 124.7,342.8 L 126.0,347.3 L 127.4,347.9 L 129.0,345.7 L 130.6,354.0 L 132.1,353.9 L 133.7,354.4 L 135.3,360.0 L 136.8,356.0 L 138.2,359.4 L 139.6,355.1 L 140.9,347.0 L 142.2,350.6 L 143.6,357.0 L 144.9,350.2 L 146.3,357.6 L 147.7,353.6 L 149.0,361.6 L 150.3,355.6 L 151.7,362.3 L 153.1,353.0 L 154.4,352.8 L 155.8,360.2 L 157.1,353.4 L 158.4,354.0 L 159.8,359.5 L 161.2,357.7 L 162.5,352.9 L 164.1,351.8 L 165.7,359.3 L 167.4,345.3 L 169.0,351.3 L 170.6,349.0 L 172.1,353.0 L 173.5,343.8 L 175.0,336.8 L 176.4,333.0 L 177.9,336.7 L 179.4,339.4 L 180.8,338.5 L 182.3,330.7 L 183.8,324.8 L 185.2,322.2 L 186.7,320.8 L 188.2,319.7 L 189.7,318.8 L 191.3,316.9 L 192.9,307.8 L 194.4,302.2 L 196.0,304.6 L 197.6,306.4 L 199.1,305.3 L 200.5,300.6 L 202.0,297.6 L 203.4,292.5 L 204.9,285.2 L 206.4,284.9 L 207.8,291.5 L 209.3,276.7 L 210.7,280.4 L 212.2,278.3 L 213.6,275.0 L 215.1,276.1 L 216.5,274.7 L 217.8,275.4 L 219.2,270.2 L 220.6,272.3 L 221.9,265.7 L 223.2,267.8 L 224.6,262.6 L 226.0,268.5 L 227.3,260.9 L 228.7,263.7 L 230.0,256.9 L 231.6,259.6 L 233.2,254.1 L 234.9,252.9 L 236.5,253.5 L 238.1,257.0 L 239.6,254.7 L 241.0,255.9 L 242.5,249.1 L 244.0,257.4 L 245.4,251.3 L 246.9,251.7 L 248.3,244.7 L 249.8,246.0 L 251.3,243.7 L 252.7,251.0 L 254.2,246.6 L 255.7,253.2 L 257.0,241.1 L 258.4,251.2 L 259.7,255.7 L 261.1,243.0 L 262.4,246.7 L 263.8,245.7 L 265.1,246.9 L 266.6,244.9 L 268.0,248.9 L 269.5,249.4 L 270.9,242.5 L 272.4,252.0 L 273.9,247.8 L 275.3,249.4 L 276.8,245.2 L 278.3,248.6 L 279.7,250.5 L 281.2,245.6 L 282.6,250.3 L 284.3,248.9 L 285.9,250.6 L 287.5,253.0 L 289.1,252.8 L 290.8,261.3 L 292.1,247.9 L 293.4,253.6 L 294.8,255.4 L 296.1,247.1 L 297.5,255.5 L 298.9,253.7 L 300.2,257.2 L 301.5,256.8 L 302.9,254.5 L 304.2,257.3 L 305.6,262.7 L 307.1,259.2 L 308.5,250.6 L 310.0,262.7 L 311.4,269.9 L 312.9,272.4 L 314.4,263.7 L 315.8,272.4 L 317.3,267.3 L 318.8,262.9 L 320.2,263.4 L 321.7,259.2 L 323.1,260.5 L 324.8,257.9 L 326.4,260.9 L 328.0,261.2 L 329.6,253.5 L 331.2,259.9 L 332.6,257.0 L 333.9,253.4 L 335.3,257.8 L 336.6,253.0 L 338.0,254.4 L 339.4,252.2 L 340.8,255.9 L 342.3,253.2 L 343.7,250.6 L 345.2,248.3 L 346.7,250.5 L 348.1,248.4 L 349.6,252.9 L 351.0,239.2 L 352.5,247.0 L 353.9,247.0 L 355.4,248.1 L 356.8,242.3 L 358.2,238.3 L 359.6,250.2 L 360.9,244.1 L 362.3,245.4 L 363.7,244.6 L 365.0,242.1 L 366.4,243.3 L 367.9,241.8 L 369.3,241.4 L 370.8,248.4 L 372.2,239.4 L 373.7,237.8 L 375.1,241.9 L 376.6,242.8 L 378.1,237.3 L 379.5,242.6 L 381.0,240.1 L 382.4,241.1 L 383.9,242.1 L 385.2,239.6 L 386.6,244.1 L 387.9,237.9 L 389.3,238.9 L 390.6,247.6 L 392.0,252.4 L 393.4,242.6 L 394.8,241.5 L 396.3,241.0 L 397.7,245.4 L 399.2,248.0 L 400.7,248.4 L 402.1,240.5 L 403.6,246.0 L 405.1,244.9 L 406.5,248.3 L 408.0,245.5 L 409.4,250.9 L 410.9,246.6 L 412.5,252.1 L 414.1,244.5 L 415.8,243.8 L 417.4,248.2 L 419.0,247.9 L 420.3,247.6 L 421.7,243.3 L 423.1,252.8 L 424.4,243.5 L 425.8,240.3 L 427.1,246.8 L 428.4,248.6 L 429.8,251.8 L 431.1,240.8 L 432.5,247.2 L 433.9,240.2 L 435.2,242.1 L 436.6,242.8 L 437.9,236.6 L 439.2,242.5 L 440.6,239.6 L 442.1,242.5 L 443.5,242.6 L 445.0,245.8 L 446.5,236.2 L 447.9,235.7 L 449.4,237.9 L 450.8,241.2 L 452.3,235.0 L 453.8,232.7 L 455.2,229.2 L 456.7,229.0 L 458.2,239.6 L 459.5,231.6 L 460.9,233.4 L 462.2,232.1 L 463.6,234.1 L 464.9,224.9 L 466.3,224.4 L 467.6,231.6 L 469.1,229.7 L 470.5,220.7 L 472.0,222.6 L 473.4,223.4 L 474.9,213.5 L 476.4,219.8 L 477.8,216.2 L 479.3,220.9 L 480.8,213.6 L 482.2,213.7 L 483.7,205.2 L 485.1,214.0 L 486.5,211.9 L 487.8,210.4 L 489.2,197.9 L 490.5,203.0 L 491.9,203.3 L 493.2,206.5 L 494.6,200.3 L 496.1,203.0 L 497.5,193.2 L 499.0,200.4 L 500.4,191.0 L 501.9,201.8 L 503.4,197.9 L 504.8,192.8 L 506.3,197.1 L 507.8,188.5 L 509.2,189.7 L 510.7,188.8 L 512.1,188.8 L 513.5,186.8 L 514.9,186.7 L 516.2,181.8 L 517.5,189.2 L 518.9,183.8 L 520.2,181.4 L 521.6,178.6 L 523.1,181.4 L 524.5,188.7 L 526.0,177.2 L 527.5,182.0 L 528.9,174.2 L 530.4,179.0 L 531.8,178.0 L 533.3,175.6 L 534.7,172.0 L 536.2,176.5 L 537.6,168.0 L 539.1,178.0 L 540.5,167.4 L 541.9,172.8 L 543.2,171.7 L 544.5,173.2 L 545.9,161.2 L 547.2,163.7 L 548.6,166.7 L 550.1,169.2 L 551.5,166.1 L 553.0,164.9 L 554.5,174.6 L 555.9,166.2 L 557.4,161.4 L 558.8,165.1 L 560.3,158.8 L 561.7,160.2 L 563.2,164.1 L 564.6,159.0 L 566.1,160.6 L 567.5,167.7 L 568.8,166.7 L 570.2,166.0 L 571.5,168.4 L 572.9,160.7 L 574.2,171.4 L 575.6,169.1 L 577.0,165.5 L 578.3,180.4 L 579.6,175.9 L 581.0,177.8 L 582.3,179.0 L 583.7,177.2 L 585.0,178.3 L 586.4,183.9 L 587.8,184.8 L 589.1,188.3 L 590.5,187.1 L 591.8,197.0 L 593.1,202.2 L 594.5,196.6 L 595.9,199.4 L 597.2,205.3 L 598.5,212.7 L 599.9,217.6 L 601.2,217.2 L 602.6,221.8 L 604.0,216.0 L 605.3,239.1 L 606.6,234.3 L 608.0,234.5 L 609.4,238.6 L 610.7,247.7 L 612.0,250.6 L 613.4,254.2 L 614.8,258.2 L 616.1,260.7 L 617.5,264.1 L 618.8,259.5 L 620.1,263.9 L 621.5,269.2 L 622.9,260.1 L 624.2,265.9 L 625.6,270.7 L 626.9,267.0 L 628.2,272.0 L 629.6,274.6 L 631.0,268.7 L 632.3,271.3 L 633.6,274.0 L 635.0,266.3 L 636.4,269.5 L 637.7,266.5 L 639.1,267.1 L 640.4,265.9 L 641.8,262.6 L 643.1,259.2 L 644.6,253.9 L 646.0,257.2 L 647.5,249.5 L 649.0,255.8 L 650.4,255.1 L 651.9,255.5 L 653.3,250.0 L 654.8,248.0 L 656.3,239.9 L 657.7,241.1 L 659.2,241.1 L 660.6,233.0 L 662.0,231.6 L 663.4,238.7 L 664.7,229.4 L 666.0,219.5 L 667.4,217.1 L 668.8,219.6 L 670.1,222.5 L 671.6,214.2 L 673.0,211.6 L 674.5,207.6 L 676.0,209.2 L 677.4,197.8 L 678.9,195.1 L 680.3,202.0 L 681.8,189.6 L 683.3,187.8 L 684.7,185.1 L 686.2,181.0 L 687.6,176.8 L 689.0,176.7 L 690.4,187.3 L 691.7,179.8 L 693.0,170.3 L 694.4,160.5 L 695.8,170.3 L 697.1,167.3 L 698.6,166.0 L 700.0,166.6 L 701.5,158.7 L 703.0,153.1 L 704.4,153.3 L 705.9,150.8 L 707.3,154.7 L 708.8,146.8 L 710.3,140.5 L 711.7,136.3 L 713.2,137.6 L 714.6,139.0 L 716.0,135.4 L 717.4,129.5 L 718.7,132.0 L 720.1,131.0 L 721.4,130.4 L 722.8,131.0 L 724.1,120.7 L 725.6,128.2 L 727.0,121.7 L 728.5,123.0 L 730.0,114.8 L 731.4,115.2 L 732.9,117.6 L 734.3,119.9 L 735.8,115.8 L 737.2,113.3 L 738.7,111.1 L 740.1,118.0 L 741.6,112.7 L 743.0,116.6 L 744.4,115.1 L 745.7,110.2 L 747.0,109.0 L 748.4,110.1 L 749.8,107.9 L 751.1,108.6 L 752.4,106.7 L 753.8,106.8 L 755.1,112.5 L 756.5,106.7 L 757.9,114.6 L 759.2,117.8 L 760.5,108.8 L 761.9,110.9 L 763.2,107.5 L 764.6,105.7 L 766.0,109.8 L 767.3,111.6 L 768.6,103.7 L 770.0,106.4 L 770.0,435.0 L 95,435.0 Z" fill="#D1E8F5" opacity="0.75"/>
  <path d="M 95.0,323.5 L 96.3,330.3 L 97.7,327.8 L 99.0,320.4 L 100.4,327.3 L 101.8,329.7 L 103.1,331.3 L 104.5,327.4 L 105.8,331.6 L 107.2,323.0 L 108.5,325.6 L 109.8,330.5 L 111.2,335.0 L 112.5,333.4 L 113.9,335.3 L 115.2,336.2 L 116.6,338.8 L 118.0,333.7 L 119.3,331.8 L 120.7,342.2 L 122.0,342.5 L 123.3,345.8 L 124.7,342.8 L 126.0,347.3 L 127.4,347.9 L 129.0,345.7 L 130.6,354.0 L 132.1,353.9 L 133.7,354.4 L 135.3,360.0 L 136.8,356.0 L 138.2,359.4 L 139.6,355.1 L 140.9,347.0 L 142.2,350.6 L 143.6,357.0 L 144.9,350.2 L 146.3,357.6 L 147.7,353.6 L 149.0,361.6 L 150.3,355.6 L 151.7,362.3 L 153.1,353.0 L 154.4,352.8 L 155.8,360.2 L 157.1,353.4 L 158.4,354.0 L 159.8,359.5 L 161.2,357.7 L 162.5,352.9 L 164.1,351.8 L 165.7,359.3 L 167.4,345.3 L 169.0,351.3 L 170.6,349.0 L 172.1,353.0 L 173.5,343.8 L 175.0,336.8 L 176.4,333.0 L 177.9,336.7 L 179.4,339.4 L 180.8,338.5 L 182.3,330.7 L 183.8,324.8 L 185.2,322.2 L 186.7,320.8 L 188.2,319.7 L 189.7,318.8 L 191.3,316.9 L 192.9,307.8 L 194.4,302.2 L 196.0,304.6 L 197.6,306.4 L 199.1,305.3 L 200.5,300.6 L 202.0,297.6 L 203.4,292.5 L 204.9,285.2 L 206.4,284.9 L 207.8,291.5 L 209.3,276.7 L 210.7,280.4 L 212.2,278.3 L 213.6,275.0 L 215.1,276.1 L 216.5,274.7 L 217.8,275.4 L 219.2,270.2 L 220.6,272.3 L 221.9,265.7 L 223.2,267.8 L 224.6,262.6 L 226.0,268.5 L 227.3,260.9 L 228.7,263.7 L 230.0,256.9 L 231.6,259.6 L 233.2,254.1 L 234.9,252.9 L 236.5,253.5 L 238.1,257.0 L 239.6,254.7 L 241.0,255.9 L 242.5,249.1 L 244.0,257.4 L 245.4,251.3 L 246.9,251.7 L 248.3,244.7 L 249.8,246.0 L 251.3,243.7 L 252.7,251.0 L 254.2,246.6 L 255.7,253.2 L 257.0,241.1 L 258.4,251.2 L 259.7,255.7 L 261.1,243.0 L 262.4,246.7 L 263.8,245.7 L 265.1,246.9 L 266.6,244.9 L 268.0,248.9 L 269.5,249.4 L 270.9,242.5 L 272.4,252.0 L 273.9,247.8 L 275.3,249.4 L 276.8,245.2 L 278.3,248.6 L 279.7,250.5 L 281.2,245.6 L 282.6,250.3 L 284.3,248.9 L 285.9,250.6 L 287.5,253.0 L 289.1,252.8 L 290.8,261.3 L 292.1,247.9 L 293.4,253.6 L 294.8,255.4 L 296.1,247.1 L 297.5,255.5 L 298.9,253.7 L 300.2,257.2 L 301.5,256.8 L 302.9,254.5 L 304.2,257.3 L 305.6,262.7 L 307.1,259.2 L 308.5,250.6 L 310.0,262.7 L 311.4,269.9 L 312.9,272.4 L 314.4,263.7 L 315.8,272.4 L 317.3,267.3 L 318.8,262.9 L 320.2,263.4 L 321.7,259.2 L 323.1,260.5 L 324.8,257.9 L 326.4,260.9 L 328.0,261.2 L 329.6,253.5 L 331.2,259.9 L 332.6,257.0 L 333.9,253.4 L 335.3,257.8 L 336.6,253.0 L 338.0,254.4 L 339.4,252.2 L 340.8,255.9 L 342.3,253.2 L 343.7,250.6 L 345.2,248.3 L 346.7,250.5 L 348.1,248.4 L 349.6,252.9 L 351.0,239.2 L 352.5,247.0 L 353.9,247.0 L 355.4,248.1 L 356.8,242.3 L 358.2,238.3 L 359.6,250.2 L 360.9,244.1 L 362.3,245.4 L 363.7,244.6 L 365.0,242.1 L 366.4,243.3 L 367.9,241.8 L 369.3,241.4 L 370.8,248.4 L 372.2,239.4 L 373.7,237.8 L 375.1,241.9 L 376.6,242.8 L 378.1,237.3 L 379.5,242.6 L 381.0,240.1 L 382.4,241.1 L 383.9,242.1 L 385.2,239.6 L 386.6,244.1 L 387.9,237.9 L 389.3,238.9 L 390.6,247.6 L 392.0,252.4 L 393.4,242.6 L 394.8,241.5 L 396.3,241.0 L 397.7,245.4 L 399.2,248.0 L 400.7,248.4 L 402.1,240.5 L 403.6,246.0 L 405.1,244.9 L 406.5,248.3 L 408.0,245.5 L 409.4,250.9 L 410.9,246.6 L 412.5,252.1 L 414.1,244.5 L 415.8,243.8 L 417.4,248.2 L 419.0,247.9 L 420.3,247.6 L 421.7,243.3 L 423.1,252.8 L 424.4,243.5 L 425.8,240.3 L 427.1,246.8 L 428.4,248.6 L 429.8,251.8 L 431.1,240.8 L 432.5,247.2 L 433.9,240.2 L 435.2,242.1 L 436.6,242.8 L 437.9,236.6 L 439.2,242.5 L 440.6,239.6 L 442.1,242.5 L 443.5,242.6 L 445.0,245.8 L 446.5,236.2 L 447.9,235.7 L 449.4,237.9 L 450.8,241.2 L 452.3,235.0 L 453.8,232.7 L 455.2,229.2 L 456.7,229.0 L 458.2,239.6 L 459.5,231.6 L 460.9,233.4 L 462.2,232.1 L 463.6,234.1 L 464.9,224.9 L 466.3,224.4 L 467.6,231.6 L 469.1,229.7 L 470.5,220.7 L 472.0,222.6 L 473.4,223.4 L 474.9,213.5 L 476.4,219.8 L 477.8,216.2 L 479.3,220.9 L 480.8,213.6 L 482.2,213.7 L 483.7,205.2 L 485.1,214.0 L 486.5,211.9 L 487.8,210.4 L 489.2,197.9 L 490.5,203.0 L 491.9,203.3 L 493.2,206.5 L 494.6,200.3 L 496.1,203.0 L 497.5,193.2 L 499.0,200.4 L 500.4,191.0 L 501.9,201.8 L 503.4,197.9 L 504.8,192.8 L 506.3,197.1 L 507.8,188.5 L 509.2,189.7 L 510.7,188.8 L 512.1,188.8 L 513.5,186.8 L 514.9,186.7 L 516.2,181.8 L 517.5,189.2 L 518.9,183.8 L 520.2,181.4 L 521.6,178.6 L 523.1,181.4 L 524.5,188.7 L 526.0,177.2 L 527.5,182.0 L 528.9,174.2 L 530.4,179.0 L 531.8,178.0 L 533.3,175.6 L 534.7,172.0 L 536.2,176.5 L 537.6,168.0 L 539.1,178.0 L 540.5,167.4 L 541.9,172.8 L 543.2,171.7 L 544.5,173.2 L 545.9,161.2 L 547.2,163.7 L 548.6,166.7 L 550.1,169.2 L 551.5,166.1 L 553.0,164.9 L 554.5,174.6 L 555.9,166.2 L 557.4,161.4 L 558.8,165.1 L 560.3,158.8 L 561.7,160.2 L 563.2,164.1 L 564.6,159.0 L 566.1,160.6 L 567.5,167.7 L 568.8,166.7 L 570.2,166.0 L 571.5,168.4 L 572.9,160.7 L 574.2,171.4 L 575.6,169.1 L 577.0,165.5 L 578.3,180.4 L 579.6,175.9 L 581.0,177.8 L 582.3,179.0 L 583.7,177.2 L 585.0,178.3 L 586.4,183.9 L 587.8,184.8 L 589.1,188.3 L 590.5,187.1 L 591.8,197.0 L 593.1,202.2 L 594.5,196.6 L 595.9,199.4 L 597.2,205.3 L 598.5,212.7 L 599.9,217.6 L 601.2,217.2 L 602.6,221.8 L 604.0,216.0 L 605.3,239.1 L 606.6,234.3 L 608.0,234.5 L 609.4,238.6 L 610.7,247.7 L 612.0,250.6 L 613.4,254.2 L 614.8,258.2 L 616.1,260.7 L 617.5,264.1 L 618.8,259.5 L 620.1,263.9 L 621.5,269.2 L 622.9,260.1 L 624.2,265.9 L 625.6,270.7 L 626.9,267.0 L 628.2,272.0 L 629.6,274.6 L 631.0,268.7 L 632.3,271.3 L 633.6,274.0 L 635.0,266.3 L 636.4,269.5 L 637.7,266.5 L 639.1,267.1 L 640.4,265.9 L 641.8,262.6 L 643.1,259.2 L 644.6,253.9 L 646.0,257.2 L 647.5,249.5 L 649.0,255.8 L 650.4,255.1 L 651.9,255.5 L 653.3,250.0 L 654.8,248.0 L 656.3,239.9 L 657.7,241.1 L 659.2,241.1 L 660.6,233.0 L 662.0,231.6 L 663.4,238.7 L 664.7,229.4 L 666.0,219.5 L 667.4,217.1 L 668.8,219.6 L 670.1,222.5 L 671.6,214.2 L 673.0,211.6 L 674.5,207.6 L 676.0,209.2 L 677.4,197.8 L 678.9,195.1 L 680.3,202.0 L 681.8,189.6 L 683.3,187.8 L 684.7,185.1 L 686.2,181.0 L 687.6,176.8 L 689.0,176.7 L 690.4,187.3 L 691.7,179.8 L 693.0,170.3 L 694.4,160.5 L 695.8,170.3 L 697.1,167.3 L 698.6,166.0 L 700.0,166.6 L 701.5,158.7 L 703.0,153.1 L 704.4,153.3 L 705.9,150.8 L 707.3,154.7 L 708.8,146.8 L 710.3,140.5 L 711.7,136.3 L 713.2,137.6 L 714.6,139.0 L 716.0,135.4 L 717.4,129.5 L 718.7,132.0 L 720.1,131.0 L 721.4,130.4 L 722.8,131.0 L 724.1,120.7 L 725.6,128.2 L 727.0,121.7 L 728.5,123.0 L 730.0,114.8 L 731.4,115.2 L 732.9,117.6 L 734.3,119.9 L 735.8,115.8 L 737.2,113.3 L 738.7,111.1 L 740.1,118.0 L 741.6,112.7 L 743.0,116.6 L 744.4,115.1 L 745.7,110.2 L 747.0,109.0 L 748.4,110.1 L 749.8,107.9 L 751.1,108.6 L 752.4,106.7 L 753.8,106.8 L 755.1,112.5 L 756.5,106.7 L 757.9,114.6 L 759.2,117.8 L 760.5,108.8 L 761.9,110.9 L 763.2,107.5 L 764.6,105.7 L 766.0,109.8 L 767.3,111.6 L 768.6,103.7 L 770.0,106.4" fill="none" stroke="#4A7FA5" stroke-width="1.8" stroke-linejoin="round" stroke-linecap="round"/>
  <text transform="rotate(-90 18 245)" x="18" y="245" text-anchor="middle" dominant-baseline="middle" font-size="11" fill="#666666" font-family="Inter, Helvetica Neue, sans-serif">Value ($)</text>
</svg>