<svg width="480" height="480" viewBox="0 0 480 480" fill="none" xmlns="http://www.w3.org/2000/svg">
<g clip-path="url(#clip0_788_14428)">
<path d="M257.019 480.591H240C107.452 480.591 0 373.14 0 240.591C0 108.043 107.452 0.591309 240 0.591309C372.548 0.591309 480 108.043 480 240.591C480 252.46 479.137 264.134 477.469 275.554H443.875C445.807 264.198 446.815 252.518 446.815 240.591C446.815 126.371 354.221 33.7765 240 33.7765C125.779 33.7765 33.1852 126.371 33.1852 240.591C33.1852 354.812 125.779 447.406 240 447.406H363.005C331.594 466.129 295.557 477.898 257.019 480.591Z" fill="#B1B1B1"/>
<path d="M408.983 411.851H240C145.416 411.851 68.7402 335.175 68.7402 240.591C68.7402 146.008 145.416 69.332 240 69.332C334.584 69.332 411.259 146.008 411.259 240.591C411.259 252.563 410.028 264.259 407.684 275.554H373.613C376.523 264.4 378.074 252.686 378.074 240.591C378.074 164.335 316.256 102.517 240 102.517C163.744 102.517 101.926 164.335 101.926 240.591C101.926 316.848 163.744 378.665 240 378.665H437.054C428.702 390.563 419.3 401.67 408.983 411.851Z" fill="#B1B1B1"/>
<path d="M457.719 343.11H239.999C183.38 343.11 137.48 297.211 137.48 240.591C137.48 183.972 183.38 138.073 239.999 138.073C296.618 138.073 342.517 183.972 342.517 240.591C342.517 252.859 340.357 264.637 336.396 275.554H299.888C305.893 265.296 309.332 253.363 309.332 240.591C309.332 202.3 278.291 171.258 239.999 171.258C201.707 171.258 170.666 202.3 170.666 240.591C170.666 278.883 201.707 309.925 239.999 309.925H470.451C467.013 321.369 462.746 332.454 457.719 343.11Z" fill="#B1B1B1"/>
</g>
<defs>
<clipPath id="clip0_788_14428">
<rect width="480" height="480" fill="white"/>
</clipPath>
</defs>
</svg>
