<svg  overflow="visible" style="display: block;" width="116.398" height="40" viewBox="0 0 116.398 40" fill="none" xmlns="http://www.w3.org/2000/svg">
<g id="Icon">
<path id="Vector" fill-rule="evenodd" clip-rule="evenodd" d="M32.511 9.03622H33.1147C33.5494 9.03678 33.9799 9.12319 34.3811 9.2905C34.7825 9.4578 35.1467 9.70271 35.4533 10.0111C35.7598 10.3196 36.0021 10.6855 36.1669 11.0879C36.3316 11.4903 36.4152 11.9213 36.4129 12.3561V15.8915C36.4147 16.6223 36.5942 17.3417 36.9359 17.9877C37.2777 18.6336 37.7715 19.1868 38.3747 19.5994C37.7698 20.0103 37.2747 20.563 36.9327 21.2094C36.5908 21.8557 36.4122 22.576 36.4129 23.3072V27.4031C36.4124 28.3407 36.0397 29.2396 35.3767 29.9025C34.7139 30.5654 33.8149 30.938 32.8775 30.9385V32.4908C34.2296 32.4874 35.5249 31.9473 36.4788 30.9893C37.4328 30.0311 37.9674 28.7337 37.9651 27.3816V23.3072C37.9638 22.5586 38.2489 21.838 38.762 21.2928C39.2751 20.7477 39.9771 20.4195 40.7245 20.3754L40.6813 19.5994L40.7245 18.8233C39.9771 18.7793 39.2751 18.451 38.762 17.9059C38.2489 17.3608 37.9638 16.6401 37.9651 15.8915V12.3561C37.9674 11.067 37.4578 9.82969 36.5483 8.91615C35.6387 8.00259 34.4037 7.48751 33.1147 7.48409H32.511V9.03622ZM15.1787 9.03623H15.7823V7.48409H15.1787C14.5387 7.48352 13.905 7.60915 13.3136 7.85379C12.7223 8.09843 12.185 8.45727 11.7324 8.90979C11.2799 9.36232 10.9211 9.89961 10.6764 10.491C10.4318 11.0823 10.3062 11.7161 10.3067 12.3561V15.8915C10.308 16.6401 10.0229 17.3608 9.50984 17.9059C8.99681 18.451 8.29467 18.7793 7.54741 18.8233L7.59052 19.5994L7.54741 20.3754C8.29467 20.4195 8.99681 20.7477 9.50984 21.2928C10.0229 21.838 10.308 22.5586 10.3067 23.3072V27.3816C10.3044 28.7337 10.839 30.0311 11.793 30.9893C12.747 31.9473 14.0423 32.4874 15.3943 32.4908V30.9387C14.4568 30.938 13.5579 30.5654 12.895 29.9025C12.2321 29.2396 11.8595 28.3407 11.8589 27.4031V23.3072C11.8595 22.576 11.681 21.8557 11.3391 21.2094C10.9971 20.563 10.502 20.0103 9.89714 19.5994C10.5003 19.1868 10.9941 18.6336 11.3358 17.9877C11.6776 17.3417 11.8571 16.6223 11.8589 15.8915V12.3561C11.8628 11.4768 12.2139 10.6347 12.8356 10.013C13.4574 9.39124 14.2995 9.0402 15.1787 9.03623ZM48.8146 18.6574L50.1081 16.0575H52.2789L50.0779 19.9379L52.3349 23.9088H50.1576L48.8449 21.2528L47.5299 23.9088H45.3589L47.616 19.9379L45.4151 16.0575H47.5881L48.8146 18.6574ZM55.7282 21.1127H54.6999V23.8851H52.8179V16.0575H55.9005C56.8427 16.0575 57.5562 16.258 58.0715 16.687C58.3322 16.8941 58.5406 17.1597 58.6795 17.4623C58.8185 17.7649 58.8841 18.0961 58.8712 18.4288C58.8874 18.9089 58.7687 19.3839 58.5284 19.7999C58.2766 20.1867 57.92 20.494 57.5 20.6859L59.1277 23.8549V23.9411H57.0991L55.7282 21.1127ZM54.7278 19.6576H55.9287C56.0749 19.673 56.2227 19.6552 56.3612 19.6056C56.4998 19.5559 56.6252 19.4757 56.7284 19.3709C56.9185 19.1484 57.0198 18.8636 57.0129 18.5711C57.0234 18.4254 57.0035 18.279 56.9545 18.1414C56.9055 18.0037 56.8286 17.8777 56.7284 17.7713C56.6234 17.6691 56.4977 17.5907 56.3595 17.5416C56.2215 17.4926 56.0745 17.4738 55.9287 17.4867H54.7278V19.6576ZM61.8138 23.8851V21.2572H63.0383C64.002 21.2572 64.7523 21.0286 65.2955 20.5717C65.5646 20.3509 65.7786 20.0712 65.9226 19.7541C66.0659 19.4372 66.1347 19.0913 66.1235 18.7436C66.1397 18.2502 66.0108 17.7628 65.7524 17.3423C65.4845 16.9368 65.1122 16.6113 64.6747 16.4003C64.1753 16.1635 63.6272 16.0462 63.0752 16.0575H59.9318V23.8851H61.8138ZM61.8138 19.7718H63.0402C63.191 19.7871 63.3437 19.7693 63.487 19.7198C63.6303 19.6703 63.7611 19.5902 63.8706 19.4852C63.972 19.3857 64.0508 19.2649 64.0996 19.1314C64.1491 18.9979 64.1678 18.8551 64.1547 18.7134C64.1741 18.3935 64.0727 18.0779 63.8706 17.8295C63.7717 17.7157 63.6484 17.6257 63.5095 17.5664C63.3712 17.507 63.221 17.4798 63.0708 17.4867H61.8138V19.7718ZM71.5147 22.4558H74.8064V23.913H69.611V16.0575H71.4972V22.4558H71.5147ZM80.3703 20.5717H77.4084V22.4558H80.9223V23.913H75.5329V16.0575H80.9611V17.5148H77.4472V19.1704H80.3897L80.3703 20.5717ZM81.5693 23.8851V16.0575H84.1107C84.7765 16.0505 85.4336 16.2161 86.0162 16.5382C86.5701 16.8492 87.02 17.3163 87.3098 17.8812C87.6208 18.4721 87.7872 19.128 87.7973 19.7956V20.1663C87.811 20.8413 87.6533 21.5087 87.3398 22.1066C87.0363 22.6718 86.5813 23.1421 86.0269 23.4648C85.4718 23.7874 84.8385 23.95 84.1971 23.9346H81.58L81.5693 23.8851ZM83.4555 22.4558V17.5428H84.0763C84.3216 17.5268 84.5675 17.5704 84.7928 17.6699C85.0181 17.7694 85.2159 17.9217 85.3698 18.1141C85.657 18.4849 85.801 19.0561 85.801 19.8279V20.1707C85.801 20.9151 85.657 21.4863 85.3698 21.8844C85.2196 22.0744 85.0262 22.2254 84.8053 22.3248C84.5851 22.4242 84.3435 22.4691 84.1019 22.4558H83.4555ZM95.034 22.9407C94.6735 23.3014 94.2292 23.5667 93.7404 23.7126C93.1428 23.914 92.5151 24.0111 91.8843 23.9992C90.8562 23.9992 90.0257 23.6844 89.4268 23.055C88.8273 22.4256 88.4844 21.546 88.4262 20.4272V19.7417C88.4162 19.0455 88.5526 18.355 88.8273 17.7153C89.0814 17.1648 89.4875 16.6987 89.9982 16.3723C90.5345 16.058 91.1484 15.8997 91.7698 15.9152C92.7398 15.9152 93.512 16.1437 94.0552 16.6007C94.5984 17.0578 94.9176 17.7153 94.997 18.5991H93.1691C93.1447 18.2432 92.9914 17.9083 92.7379 17.6571C92.4845 17.4519 92.1622 17.3503 91.8368 17.3725C91.6152 17.3671 91.3956 17.4195 91.2003 17.5245C91.0051 17.6297 90.8399 17.7838 90.7222 17.9718C90.4281 18.497 90.2898 19.0953 90.3236 19.6964V20.1814C90.3236 20.9532 90.4656 21.5525 90.7222 21.9535C90.9788 22.3544 91.4081 22.5527 91.9788 22.5527C92.38 22.5805 92.7773 22.4583 93.0934 22.2099V20.9812H91.7811V19.6878H94.9801V22.9407H95.034ZM100.891 20.5695H97.9201V22.4536H101.432V23.9108H96.0427V16.0575H101.471V17.5148H97.9571V19.1704H100.928V20.5717L100.891 20.5695ZM105.032 21.1106H104.004V23.8851H102.09V16.0575H105.174C106.119 16.0575 106.832 16.258 107.345 16.687C107.606 16.8937 107.815 17.1593 107.954 17.462C108.093 17.7647 108.159 18.096 108.145 18.4288C108.161 18.9089 108.042 19.3839 107.802 19.7999C107.551 20.1867 107.194 20.494 106.774 20.6859L108.404 23.8549V23.9411H106.375L105.032 21.1106ZM104.004 19.6554H105.203C105.349 19.6708 105.497 19.653 105.635 19.6034C105.774 19.5537 105.899 19.4735 106.002 19.3688C106.189 19.1459 106.288 18.8621 106.28 18.5711C106.29 18.4254 106.27 18.2792 106.221 18.1416C106.173 18.004 106.096 17.878 105.996 17.7713C105.892 17.67 105.767 17.5921 105.63 17.5431C105.493 17.4939 105.348 17.4748 105.203 17.4867H104.002L104.004 19.6554ZM29.7948 13.7357H32.1014L27.2941 18.2413C26.4315 19.0217 25.3099 19.4539 24.1467 19.4539C22.9835 19.4539 21.8619 19.0217 20.9993 18.2413L16.192 13.7357H18.4986L22.1419 17.1418C22.6858 17.6411 23.3975 17.9182 24.1359 17.9182C24.8744 17.9182 25.5859 17.6411 26.13 17.1418L29.7948 13.7357ZM16.1704 26.2391H18.4771L22.1634 22.7899C22.7074 22.2906 23.419 22.0135 24.1575 22.0135C24.8958 22.0135 25.6074 22.2906 26.1515 22.7899L29.8163 26.2391H32.1229L27.294 21.7119C26.4364 20.9219 25.3128 20.4834 24.1467 20.4834C22.9805 20.4834 21.857 20.9219 20.9993 21.7119L16.1704 26.2391Z" fill="#818181"/>
</g>
</svg>
