<svg preserveAspectRatio="none" overflow="visible" style="display: block;" width="82.9714" height="83.562" viewBox="0 0 82.9714 83.562" fill="none" xmlns="http://www.w3.org/2000/svg">
<g id="paypal-usd-pyusd-logo 1" clip-path="url(#clip0_0_529)">
<path id="Vector" d="M41.4365 83.562C64.3693 83.562 82.873 64.8614 82.873 41.8302C82.9714 18.7006 64.3693 0 41.4365 0C18.6021 0 0 18.7006 0 41.7318C0 64.8614 18.6021 83.562 41.4365 83.562Z" fill="#0071F3"/>
<path id="Vector_2" d="M48.031 16.7314H43.5035H33.4643C31.8895 16.7314 30.4132 17.9125 30.2163 19.5857L29.2321 26.2786V26.377H24.3109C23.0314 26.377 21.9487 27.4597 21.9487 28.7392C21.9487 30.1171 23.0314 31.1013 24.3109 31.1998H28.4447L27.7557 35.8257V36.2194H22.8345C21.555 36.2194 20.4723 37.3021 20.4723 38.5816C20.4723 39.8611 21.555 40.9437 22.8345 40.9437H26.9683L24.7046 55.3136L24.0156 60.1364L23.6219 62.6954C23.3266 64.7624 24.803 66.534 26.8699 66.534H30.0195H34.3501H37.8934C39.4682 66.534 40.8461 65.3529 41.1414 63.6797L43.2083 50.4909H44.3894H48.3263C57.5782 50.4909 65.1568 42.8138 64.96 33.4635C64.8615 23.9164 57.1845 16.7314 48.031 16.7314ZM33.2674 31.0029L48.031 31.1013C49.3106 31.1013 50.4916 32.184 50.4916 33.5619C50.4916 34.9399 49.409 36.0225 48.031 36.0225H32.4801L33.2674 31.0029ZM48.1295 45.3728H45.6689H44.4878H42.0272C40.4524 45.3728 39.0745 46.5539 38.7792 48.2271L36.7123 61.4159H28.5431L31.6927 40.7469H48.031C51.968 40.7469 55.216 37.4989 55.216 33.5619C55.216 29.625 51.968 26.377 48.031 26.377L34.0548 26.2786L34.7438 21.5542H48.3263C55.0191 21.5542 60.334 27.066 60.2356 33.7588C60.0388 40.2548 54.6255 45.3728 48.1295 45.3728Z" fill="white"/>
</g>
<defs>
<clipPath id="clip0_0_529">
<rect width="82.9714" height="83.562" fill="white"/>
</clipPath>
</defs>
</svg>
