<svg preserveAspectRatio="none" overflow="visible" style="display: block;" width="83.8095" height="83.8095" viewBox="0 0 83.8095 83.8095" fill="none" xmlns="http://www.w3.org/2000/svg">
<g id="a" clip-path="url(#clip0_0_525)">
<path id="Vector" d="M41.9048 83.8095C65.1271 83.8095 83.8095 65.1271 83.8095 41.9048C83.8095 18.6825 65.1271 0 41.9048 0C18.6825 0 0 18.6825 0 41.9048C0 65.1271 18.6825 83.8095 41.9048 83.8095Z" fill="#2775CA"/>
<path id="Vector_2" d="M53.4282 48.5392C53.4282 42.4282 49.7614 40.3333 42.4279 39.4602C37.19 38.7615 36.1426 37.3653 36.1426 34.9204C36.1426 32.4754 37.8888 30.9049 41.3805 30.9049C44.5235 30.9049 46.2697 31.9524 47.1421 34.5717C47.3172 35.0954 47.8409 35.4448 48.3646 35.4448H51.1583C51.857 35.4448 52.3808 34.9211 52.3808 34.223V34.048C51.682 30.2069 48.5397 27.2382 44.5235 26.8895V22.699C44.5235 22.0003 43.9998 21.4765 43.1267 21.3022H40.5074C39.8086 21.3022 39.2849 21.8259 39.1106 22.699V26.7145C33.8726 27.4132 30.5553 30.9049 30.5553 35.2704C30.5553 41.0321 34.047 43.302 41.3805 44.1751C46.2697 45.0482 47.8409 46.0957 47.8409 48.8893C47.8409 51.683 45.3959 53.6035 42.0793 53.6035C37.5394 53.6035 35.9682 51.6823 35.4438 49.0637C35.2695 48.3656 34.7457 48.0162 34.222 48.0162H31.2533C30.5553 48.0162 30.0315 48.5399 30.0315 49.2387V49.4137C30.7296 53.7786 33.5233 56.9216 39.2856 57.7947V61.9852C39.2856 62.6832 39.8093 63.207 40.6824 63.382H43.3017C44.0005 63.382 44.5242 62.8583 44.6986 61.9852V57.7947C49.9365 56.9216 53.4289 53.2548 53.4289 48.5406L53.4282 48.5392Z" fill="white"/>
<path id="Vector_3" d="M33 66.8722C19.3811 61.9836 12.397 46.7929 17.4606 33.3483C20.0799 26.0148 25.8415 20.4282 33 17.8089C33.6987 17.4595 34.0474 16.9358 34.0474 16.0627V13.6184C34.0474 12.9197 33.698 12.396 33 12.2216C32.8249 12.2216 32.4763 12.2216 32.3012 12.396C15.7144 17.6346 6.63464 35.2696 11.8726 51.8565C15.0156 61.6342 22.5234 69.1421 32.3012 72.2851C33 72.6345 33.698 72.2851 33.8724 71.5864C34.0474 71.412 34.0474 71.237 34.0474 70.8883V68.4433C34.0474 67.9196 33.5237 67.2215 33 66.8722ZM51.5081 12.396C50.8093 12.0466 50.1113 12.396 49.9369 13.0947C49.7619 13.2698 49.7619 13.4441 49.7619 13.7935V16.2378C49.7619 16.9365 50.2856 17.6346 50.8093 17.984C64.4282 22.8725 71.4123 38.0632 66.3487 51.5078C63.7294 58.8413 57.9678 64.4279 50.8093 67.0472C50.1106 67.3966 49.7619 67.9203 49.7619 68.7934V71.2377C49.7619 71.9364 50.1113 72.4602 50.8093 72.6345C50.9844 72.6345 51.3331 72.6345 51.5081 72.4602C68.095 67.2222 77.1747 49.5872 71.9368 32.9997C68.7937 23.0475 61.1108 15.539 51.5081 12.3967V12.396Z" fill="white"/>
</g>
<defs>
<clipPath id="clip0_0_525">
<rect width="83.8095" height="83.8095" fill="white"/>
</clipPath>
</defs>
</svg>
