<svg preserveAspectRatio="none" overflow="visible" style="display: block;" width="153" height="40" viewBox="0 0 153 40" fill="none" xmlns="http://www.w3.org/2000/svg">
<g id="Icon" clip-path="url(#clip0_0_4)">
<path id="Vector" fill-rule="evenodd" clip-rule="evenodd" d="M19.9326 3.00069C10.5069 3.00069 2.86593 10.6417 2.86593 20.0674C2.86593 29.493 10.5069 37.134 19.9326 37.134H30.1941C27.1974 38.9398 23.6863 39.9785 19.9326 39.9785C8.93598 39.9785 0.0214844 31.064 0.0214844 20.0674C0.0214844 9.07075 8.93598 0.15625 19.9326 0.15625C30.9292 0.15625 39.8437 9.07075 39.8437 20.0674C39.8437 21.0331 39.7749 21.9828 39.642 22.9118H36.7633C36.9184 21.9868 36.9992 21.0365 36.9992 20.0674C36.9992 10.6417 29.3583 3.00069 19.9326 3.00069ZM36.2748 31.4451C35.5616 32.4674 34.7551 33.4198 33.8675 34.2896H29.3699H19.9326C12.0779 34.2896 5.71037 27.9221 5.71037 20.0674C5.71037 12.2126 12.0779 5.84514 19.9326 5.84514C27.7873 5.84514 34.1548 12.2126 34.1548 20.0674C34.1548 21.0415 34.0569 21.9928 33.8703 22.9118H30.9519C31.1859 22.0026 31.3103 21.0496 31.3103 20.0674C31.3103 13.7836 26.2163 8.68958 19.9326 8.68958C13.6488 8.68958 8.55481 13.7836 8.55481 20.0674C8.55481 26.3511 13.6488 31.4451 19.9326 31.4451H28.4673H32.6535H36.2748ZM37.9275 28.6007C37.9275 28.601 37.9275 28.6005 37.9275 28.6007C38.3606 27.6889 38.7269 26.738 39.0191 25.7563H36.0281H32.9714H29.7882H26.2931H19.9326C16.7906 25.7563 14.2437 23.2092 14.2437 20.0674C14.2437 16.9255 16.7906 14.3785 19.9326 14.3785C23.0745 14.3785 25.6215 16.9255 25.6215 20.0674C25.6215 21.1036 25.3445 22.075 24.8603 22.9118H27.9803C28.2948 22.0221 28.4659 21.0647 28.4659 20.0674C28.4659 15.3545 24.6454 11.534 19.9326 11.534C15.2197 11.534 11.3992 15.3545 11.3992 20.0674C11.3992 24.7802 15.2197 28.6007 19.9326 28.6007H27.4584H31.3114H34.716H37.9275ZM143.223 36.4228H145.752V30.6884C145.752 28.9761 146.708 27.7814 148.281 27.7814C149.754 27.7814 150.411 28.6575 150.411 30.4495V36.4228H152.96V29.9318C152.96 26.9252 151.387 25.6708 149.197 25.6708C147.663 25.6708 146.429 26.3876 145.911 27.7217H145.772L145.652 25.8699H143.223V36.4228ZM131.34 31.1663C131.34 27.9009 133.311 25.6708 136.557 25.6708C139.683 25.6708 141.754 27.7814 141.754 31.1464C141.754 34.4118 139.802 36.6219 136.557 36.6219C133.431 36.6219 131.34 34.5313 131.34 31.1663ZM133.909 31.1464C133.909 33.2968 134.864 34.4915 136.537 34.4915C138.13 34.4915 139.185 33.3764 139.185 31.1464C139.185 28.996 138.229 27.8013 136.557 27.8013C134.964 27.8013 133.909 28.8964 133.909 31.1464ZM127.32 21.9076V24.297H129.848V21.9076H127.32ZM120.61 33.8941C120.61 35.945 121.784 36.622 123.417 36.622C124.174 36.622 124.99 36.4627 125.448 36.2436V34.2326C125.189 34.3919 124.811 34.5114 124.333 34.5114C123.417 34.5114 123.138 34.2127 123.138 33.1972V27.9407H125.448V25.87H123.138V22.4851L120.61 23.0824V25.87H118.877V27.9407H120.61V33.8941ZM127.32 25.87V36.4228H129.848V25.87H127.32ZM112.01 36.6219C109.88 36.6219 108.466 35.4074 108.466 33.5755C108.466 31.3256 110.119 30.2305 112.588 30.2305H115.236V29.434C115.236 28.3987 114.638 27.7217 113.245 27.7217C111.871 27.7217 111.214 28.319 111.214 29.215H108.824C108.804 26.985 110.596 25.6708 113.404 25.6708C116.112 25.6708 117.764 26.9252 117.764 29.5336V34.1729C117.764 34.6109 117.904 34.7901 118.222 34.7901C118.421 34.7901 118.64 34.7503 118.8 34.6109V36.2436C118.441 36.5025 117.824 36.6219 117.366 36.6219C116.092 36.6219 115.415 36.0047 115.415 34.8698V34.81H115.276C114.897 35.9251 113.563 36.6219 112.01 36.6219ZM112.926 34.6507C114.419 34.6507 115.256 33.7547 115.256 32.7592V31.8035H112.946C111.791 31.8035 111.054 32.2017 111.054 33.2371C111.054 34.153 111.692 34.6507 112.926 34.6507ZM96.5605 31.1464C96.5605 34.7503 98.2928 36.602 100.881 36.602C102.494 36.602 103.808 35.8056 104.306 34.5711H104.485L104.585 36.4228H106.994V21.9076H104.485V27.7018H104.306C103.808 26.4673 102.494 25.6708 100.881 25.6708C98.2928 25.6708 96.5605 27.5226 96.5605 31.1464ZM104.445 31.7039C104.445 33.2769 103.43 34.4915 101.777 34.4915C100.184 34.4915 99.149 33.476 99.149 31.1464C99.149 28.7969 100.184 27.7615 101.777 27.7615C103.43 27.7615 104.445 28.9761 104.445 30.5491V31.7039ZM85.4279 36.4228V25.8699H87.857L87.9765 27.7217H88.1159C88.6336 26.3876 89.8681 25.6708 91.4012 25.6708C93.5914 25.6708 95.1644 26.9252 95.1644 29.9318V36.4228H92.6158V30.4495C92.6158 28.6575 91.9587 27.7814 90.4853 27.7814C88.9123 27.7814 87.9566 28.9761 87.9566 30.6884V36.4228H85.4279ZM73.6164 32.4605C73.6164 35.2083 74.9903 36.622 77.3597 36.622C78.873 36.622 80.1074 35.8853 80.6052 34.5711H80.7446L80.8442 36.4229H83.2733V25.87H80.7446V31.6243C80.7446 33.3167 79.8088 34.4915 78.2756 34.4915C76.8022 34.4915 76.165 33.6353 76.165 31.8433V25.87H73.6164V32.4605ZM61.8331 31.1663C61.8331 27.9009 63.8043 25.6708 67.0498 25.6708C70.1758 25.6708 72.2466 27.7814 72.2466 31.1464C72.2466 34.4118 70.2953 36.6219 67.0498 36.6219C63.9238 36.6219 61.8331 34.5313 61.8331 31.1663ZM64.4016 31.1464C64.4016 33.2968 65.3574 34.4915 67.0299 34.4915C68.6228 34.4915 69.6781 33.3764 69.6781 31.1464C69.6781 28.996 68.7223 27.8013 67.0498 27.8013C65.4569 27.8013 64.4016 28.8964 64.4016 31.1464ZM51.136 21.9076V36.4228H53.8041V30.4495H60.5938V28.2394H53.8041V24.2372H61.3903V21.9076H51.136ZM88.7569 12.6774C88.7569 9.41199 90.7281 7.18194 93.9736 7.18194C97.0996 7.18194 99.1704 9.29252 99.1704 12.6575C99.1704 15.9229 97.2191 18.1331 93.9736 18.1331C90.8475 18.1331 88.7569 16.0424 88.7569 12.6774ZM91.3254 12.6575C91.3254 14.8079 92.2811 16.0026 93.9537 16.0026C95.5466 16.0026 96.6018 14.8875 96.6018 12.6575C96.6018 10.5071 95.6461 9.31243 93.9736 9.31243C92.3807 9.31243 91.3254 10.4075 91.3254 12.6575ZM76.8117 12.6575C76.8117 16.2614 78.544 18.1132 81.1324 18.1132C82.7452 18.1132 84.0594 17.3167 84.5572 16.0822H84.7364L84.8359 17.934H87.2452V3.41875H84.7364V9.21288H84.5572C84.0594 7.97839 82.7452 7.18195 81.1324 7.18195C78.544 7.18195 76.8117 9.03368 76.8117 12.6575ZM84.6965 13.215C84.6965 14.788 83.6811 16.0026 82.0284 16.0026C80.4356 16.0026 79.4002 14.9871 79.4002 12.6575C79.4002 10.308 80.4356 9.27262 82.0284 9.27262C83.6811 9.27262 84.6965 10.4872 84.6965 12.0602V13.215ZM65.6791 17.9339V7.38106H68.1083L68.2277 9.23279H68.3671C68.8848 7.89875 70.1193 7.18194 71.6524 7.18194C73.8427 7.18194 75.4156 8.43634 75.4156 11.4429V17.9339H72.867V11.9606C72.867 10.1686 72.2099 9.29252 70.7365 9.29252C69.1635 9.29252 68.2078 10.4872 68.2078 12.1995V17.9339H65.6791ZM57.1493 3.23958C52.9679 3.23958 50.2003 6.02714 50.2003 10.6863C50.2003 15.3057 52.948 18.1331 57.1493 18.1331C61.3505 18.1331 64.1181 15.3455 64.1181 10.6863C64.1181 6.04705 61.3704 3.23958 57.1493 3.23958ZM57.1493 15.7836C54.5608 15.7836 53.0077 13.9518 53.0077 10.6863C53.0077 7.44083 54.5409 5.5891 57.1493 5.5891C59.7576 5.5891 61.3107 7.42092 61.3107 10.6863C61.3107 13.9119 59.7775 15.7836 57.1493 15.7836Z" fill="white"/>
</g>
<defs>
<clipPath id="clip0_0_4">
<rect width="153" height="40" fill="white"/>
</clipPath>
</defs>
</svg>
