<svg preserveAspectRatio="none" width="100%" height="100%" overflow="visible" style="display: block;" viewBox="0 0 93.5044 28" fill="none" xmlns="http://www.w3.org/2000/svg">
<g id="Ondo Logo Lockup">
<path d="M10.002 14.0004C10.002 11.7919 11.7916 10.0023 14 10.0023C16.2085 10.0023 17.9998 11.7919 17.9998 14.0004C17.9998 14.7292 17.8057 15.412 17.4634 15.9994H19.6566C19.8779 15.3745 19.9988 14.7019 19.9988 14.0004C19.9988 10.6885 17.3136 8.0016 14 8.0016C10.6865 8.0016 8.00124 10.6885 8.00124 14.0004C8.00124 17.3122 10.6882 19.9992 14 19.9992H26.6531C26.9579 19.3589 27.2151 18.6915 27.4194 18.0001H14C11.7916 18.0001 10.002 16.2088 10.002 14.0004Z" fill="var(--fill-0, white)"/>
<path d="M6.00217 14.0004C6.00217 9.58343 9.58305 6.00255 14 6.00255C18.4169 6.00255 21.9995 9.58343 21.9995 14.0004C21.9995 14.69 21.9126 15.3609 21.7475 15.9994H23.801C23.9321 15.354 24.0002 14.6849 24.0002 14.0004C24.0002 8.47835 19.5237 4.00012 14 4.00012C8.47626 4.00012 4.00144 8.47835 4.00144 14.0004C4.00144 19.5224 8.47796 24.0006 14 24.0006H23.7976C24.4225 23.3893 24.9895 22.7184 25.4901 21.9999H14C9.58305 21.9999 6.00217 18.419 6.00217 14.0004Z" fill="var(--fill-0, white)"/>
<path d="M14 0C6.26782 0 0 6.26782 0 14C0 21.7322 6.26782 28 14 28C16.6376 28 19.1065 27.2695 21.2128 26.001H14C7.3729 26.001 1.99903 20.6288 1.99903 14C1.99903 7.3712 7.3729 1.99903 14 1.99903C20.6271 1.99903 26.001 7.3729 26.001 14C26.001 14.6811 25.9448 15.3486 25.8341 15.999H27.857C27.8808 15.8322 27.9029 15.6653 27.9217 15.4967C27.9285 15.4286 27.9353 15.3605 27.9404 15.2907C27.9591 15.1017 27.9728 14.911 27.9813 14.7203C27.9881 14.6011 27.9932 14.4819 27.9949 14.361C27.9983 14.2418 28 14.1209 28 14C28 6.26782 21.7322 0 14 0Z" fill="var(--fill-0, white)"/>
<path d="M44.5268 5.37739C49.3172 5.37739 53.0057 9.11385 53.0057 13.9521C53.0057 18.8622 49.3172 22.6226 44.5268 22.6226C39.7125 22.6226 36.0479 18.8622 36.0479 13.9521C36.0479 9.11385 39.7125 5.37739 44.5268 5.37739ZM44.5268 7.6049C41.0778 7.6049 38.4191 10.3833 38.4191 13.9521C38.4191 17.5928 41.0778 20.3951 44.5268 20.3951C47.9759 20.3951 50.6345 17.5928 50.6345 13.9521C50.6345 10.3833 47.9759 7.6049 44.5268 7.6049Z" fill="var(--fill-0, white)"/>
<path d="M60.746 10.4551C63.7639 10.4551 65.6321 12.4671 65.6321 15.7006V22.3831H63.4285V15.9401C63.4285 13.9042 62.1831 12.5629 60.243 12.5629C58.2789 12.5629 57.0095 13.9042 57.0095 15.9401V22.3831H54.782V10.6947H57.0095V12.7306C57.752 11.2935 59.0693 10.4551 60.746 10.4551Z" fill="var(--fill-0, white)"/>
<path d="M77.4077 5.6169H79.6113V22.3831H77.4077V19.9879C76.5455 21.6646 75.0126 22.6226 72.9527 22.6226C69.7911 22.6226 67.2762 19.9161 67.2762 16.5389C67.2762 13.1617 69.7911 10.4551 72.9527 10.4551C75.0126 10.4551 76.5455 11.4132 77.4077 13.0898V5.6169ZM73.4078 20.5149C75.7072 20.5149 77.4077 18.8382 77.4077 16.5389C77.4077 14.2395 75.7072 12.5629 73.4078 12.5629C71.1803 12.5629 69.4318 14.3114 69.4318 16.5389C69.4318 18.7664 71.1803 20.5149 73.4078 20.5149Z" fill="var(--fill-0, white)"/>
<path d="M87.4686 10.4551C90.8458 10.4551 93.5044 13.1138 93.5044 16.5628C93.5044 19.9879 90.8458 22.6226 87.4686 22.6226C84.0675 22.6226 81.4328 19.9879 81.4328 16.5628C81.4328 13.1138 84.0675 10.4551 87.4686 10.4551ZM87.4686 12.5629C85.265 12.5629 83.5884 14.2874 83.5884 16.5628C83.5884 18.7903 85.265 20.5149 87.4686 20.5149C89.6482 20.5149 91.3488 18.7903 91.3488 16.5628C91.3488 14.2874 89.6482 12.5629 87.4686 12.5629Z" fill="var(--fill-0, white)"/>
</g>
</svg>
